<?xml version="1.0" encoding="UTF-8" standalone="no"?>
<!DOCTYPE svg PUBLIC "-//W3C//DTD SVG 1.1//EN"
 "http://www.w3.org/Graphics/SVG/1.1/DTD/svg11.dtd">
<!-- Generated by graphviz version 2.36.0 (20140111.2315)
 -->
<!-- Title: %3 Pages: 1 -->
<svg width="214pt" height="77pt"
 viewBox="0.00 0.00 214.00 77.00" xmlns="http://www.w3.org/2000/svg" xmlns:xlink="http://www.w3.org/1999/xlink">
<g id="graph0" class="graph" transform="scale(1 1) rotate(0) translate(4 73)">
<title>%3</title>
<polygon fill="white" stroke="none" points="-4,4 -4,-73 210,-73 210,4 -4,4"/>
<!-- Bytecode -->
<g id="node1" class="node"><title>Bytecode</title>
<polygon fill="none" stroke="black" points="96,-36 28,-36 28,-0 96,-0 96,-36"/>
<text text-anchor="middle" x="62" y="-14.3" font-family="Times,serif" font-size="14.00">Bytecode</text>
</g>
<!-- Bytecode&#45;&gt;Bytecode -->
<g id="edge1" class="edge"><title>Bytecode&#45;&gt;Bytecode</title>
<path fill="none" stroke="black" d="M52.5928,-36.1527C51.1455,-45.5391 54.2812,-54 62,-54 66.7036,-54 69.7054,-50.8581 71.0053,-46.2796"/>
<polygon fill="black" stroke="black" points="74.5078,-46.2837 71.4072,-36.1527 67.5133,-46.006 74.5078,-46.2837"/>
<text text-anchor="middle" x="62" y="-57.8" font-family="Times,serif" font-size="14.00">Bytecode Transformer</text>
</g>
<!-- Execution -->
<g id="node2" class="node"><title>Execution</title>
<polygon fill="none" stroke="black" points="205.5,-36 134.5,-36 134.5,-0 205.5,-0 205.5,-36"/>
<text text-anchor="middle" x="170" y="-14.3" font-family="Times,serif" font-size="14.00">Execution</text>
</g>
<!-- Bytecode&#45;&gt;Execution -->
<g id="edge2" class="edge"><title>Bytecode&#45;&gt;Execution</title>
<path fill="none" stroke="black" d="M96.2482,-18C105.166,-18 114.954,-18 124.379,-18"/>
<polygon fill="black" stroke="black" points="124.406,-21.5001 134.406,-18 124.406,-14.5001 124.406,-21.5001"/>
</g>
</g>
</svg>
