<?xml version="1.0" encoding="UTF-8" standalone="no"?>
<!DOCTYPE svg PUBLIC "-//W3C//DTD SVG 1.1//EN"
 "http://www.w3.org/Graphics/SVG/1.1/DTD/svg11.dtd">
<!-- Generated by graphviz version 2.38.0 (20140413.2041)
 -->
<!-- Title: %3 Pages: 1 -->
<svg width="514pt" height="67pt"
 viewBox="0.00 0.00 514.00 67.00" xmlns="http://www.w3.org/2000/svg" xmlns:xlink="http://www.w3.org/1999/xlink">
<g id="graph0" class="graph" transform="scale(1 1) rotate(0) translate(4 63)">
<title>%3</title>
<polygon fill="white" stroke="none" points="-4,4 -4,-63 510,-63 510,4 -4,4"/>
<text text-anchor="middle" x="253" y="-43.8" font-family="Times,serif" font-size="14.00">CPython Compilation Stages</text>
<!-- Raw Source Code -->
<g id="node1" class="node"><title>Raw Source Code</title>
<polygon fill="none" stroke="black" points="115,-36 7.10543e-15,-36 7.10543e-15,-0 115,-0 115,-36"/>
<text text-anchor="middle" x="57.5" y="-14.3" font-family="Times,serif" font-size="14.00">Raw Source Code</text>
</g>
<!-- Source Text -->
<g id="node2" class="node"><title>Source Text</title>
<polygon fill="none" stroke="black" points="234,-36 151,-36 151,-0 234,-0 234,-36"/>
<text text-anchor="middle" x="192.5" y="-14.3" font-family="Times,serif" font-size="14.00">Source Text</text>
</g>
<!-- Raw Source Code&#45;&gt;Source Text -->
<g id="edge1" class="edge"><title>Raw Source Code&#45;&gt;Source Text</title>
<path fill="none" stroke="black" d="M115.29,-18C123.823,-18 132.574,-18 140.965,-18"/>
<polygon fill="black" stroke="black" points="140.982,-21.5001 150.982,-18 140.982,-14.5001 140.982,-21.5001"/>
</g>
<!-- Abstract Syntax Tree -->
<g id="node3" class="node"><title>Abstract Syntax Tree</title>
<polygon fill="none" stroke="black" points="402,-36 270,-36 270,-0 402,-0 402,-36"/>
<text text-anchor="middle" x="336" y="-14.3" font-family="Times,serif" font-size="14.00">Abstract Syntax Tree</text>
</g>
<!-- Source Text&#45;&gt;Abstract Syntax Tree -->
<g id="edge2" class="edge"><title>Source Text&#45;&gt;Abstract Syntax Tree</title>
<path fill="none" stroke="black" d="M234.048,-18C242.177,-18 250.961,-18 259.838,-18"/>
<polygon fill="black" stroke="black" points="259.87,-21.5001 269.87,-18 259.869,-14.5001 259.87,-21.5001"/>
</g>
<!-- Bytecode -->
<g id="node4" class="node"><title>Bytecode</title>
<polygon fill="none" stroke="black" points="506,-36 438,-36 438,-0 506,-0 506,-36"/>
<text text-anchor="middle" x="472" y="-14.3" font-family="Times,serif" font-size="14.00">Bytecode</text>
</g>
<!-- Abstract Syntax Tree&#45;&gt;Bytecode -->
<g id="edge3" class="edge"><title>Abstract Syntax Tree&#45;&gt;Bytecode</title>
<path fill="none" stroke="black" d="M402.037,-18C410.758,-18 419.523,-18 427.741,-18"/>
<polygon fill="black" stroke="black" points="427.813,-21.5001 437.813,-18 427.813,-14.5001 427.813,-21.5001"/>
</g>
</g>
</svg>
