<?xml version="1.0" encoding="UTF-8" standalone="no"?>
<!DOCTYPE svg PUBLIC "-//W3C//DTD SVG 1.1//EN"
 "http://www.w3.org/Graphics/SVG/1.1/DTD/svg11.dtd">
<!-- Generated by graphviz version 2.36.0 (20140111.2315)
 -->
<!-- Title: %3 Pages: 1 -->
<svg width="692pt" height="67pt"
 viewBox="0.00 0.00 692.00 67.00" xmlns="http://www.w3.org/2000/svg" xmlns:xlink="http://www.w3.org/1999/xlink">
<g id="graph0" class="graph" transform="scale(1 1) rotate(0) translate(4 63)">
<title>%3</title>
<polygon fill="white" stroke="none" points="-4,4 -4,-63 688,-63 688,4 -4,4"/>
<text text-anchor="middle" x="342" y="-43.8" font-family="Times,serif" font-size="14.00">CPython Code Representations</text>
<!-- Raw Source (Bytes) -->
<g id="node1" class="node"><title>Raw Source (Bytes)</title>
<polygon fill="none" stroke="black" points="126,-36 0,-36 0,-0 126,-0 126,-36"/>
<text text-anchor="middle" x="63" y="-14.3" font-family="Times,serif" font-size="14.00">Raw Source (Bytes)</text>
</g>
<!-- Source Text (Unicode) -->
<g id="node2" class="node"><title>Source Text (Unicode)</title>
<polygon fill="none" stroke="black" points="303.5,-36 162.5,-36 162.5,-0 303.5,-0 303.5,-36"/>
<text text-anchor="middle" x="233" y="-14.3" font-family="Times,serif" font-size="14.00">Source Text (Unicode)</text>
</g>
<!-- Raw Source (Bytes)&#45;&gt;Source Text (Unicode) -->
<g id="edge1" class="edge"><title>Raw Source (Bytes)&#45;&gt;Source Text (Unicode)</title>
<path fill="none" stroke="black" d="M126.08,-18C134.545,-18 143.329,-18 152.055,-18"/>
<polygon fill="black" stroke="black" points="152.248,-21.5001 162.248,-18 152.248,-14.5001 152.248,-21.5001"/>
</g>
<!-- Abstract Syntax Tree -->
<g id="node3" class="node"><title>Abstract Syntax Tree</title>
<polygon fill="none" stroke="black" points="472,-36 340,-36 340,-0 472,-0 472,-36"/>
<text text-anchor="middle" x="406" y="-14.3" font-family="Times,serif" font-size="14.00">Abstract Syntax Tree</text>
</g>
<!-- Source Text (Unicode)&#45;&gt;Abstract Syntax Tree -->
<g id="edge2" class="edge"><title>Source Text (Unicode)&#45;&gt;Abstract Syntax Tree</title>
<path fill="none" stroke="black" d="M303.552,-18C312.192,-18 321.057,-18 329.777,-18"/>
<polygon fill="black" stroke="black" points="329.925,-21.5001 339.925,-18 329.925,-14.5001 329.925,-21.5001"/>
</g>
<!-- Bytecode -->
<g id="node4" class="node"><title>Bytecode</title>
<polygon fill="none" stroke="black" points="576,-36 508,-36 508,-0 576,-0 576,-36"/>
<text text-anchor="middle" x="542" y="-14.3" font-family="Times,serif" font-size="14.00">Bytecode</text>
</g>
<!-- Abstract Syntax Tree&#45;&gt;Bytecode -->
<g id="edge3" class="edge"><title>Abstract Syntax Tree&#45;&gt;Bytecode</title>
<path fill="none" stroke="black" d="M472.037,-18C480.758,-18 489.523,-18 497.741,-18"/>
<polygon fill="black" stroke="black" points="497.813,-21.5001 507.813,-18 497.813,-14.5001 497.813,-21.5001"/>
</g>
<!-- Execution -->
<g id="node5" class="node"><title>Execution</title>
<polygon fill="none" stroke="black" points="683.5,-36 612.5,-36 612.5,-0 683.5,-0 683.5,-36"/>
<text text-anchor="middle" x="648" y="-14.3" font-family="Times,serif" font-size="14.00">Execution</text>
</g>
<!-- Bytecode&#45;&gt;Execution -->
<g id="edge4" class="edge"><title>Bytecode&#45;&gt;Execution</title>
<path fill="none" stroke="black" d="M576.192,-18C584.481,-18 593.507,-18 602.254,-18"/>
<polygon fill="black" stroke="black" points="602.332,-21.5001 612.332,-18 602.332,-14.5001 602.332,-21.5001"/>
</g>
</g>
</svg>
