<?xml version="1.0" encoding="UTF-8" standalone="no"?>
<!DOCTYPE svg PUBLIC "-//W3C//DTD SVG 1.1//EN"
 "http://www.w3.org/Graphics/SVG/1.1/DTD/svg11.dtd">
<!-- Generated by graphviz version 2.36.0 (20140111.2315)
 -->
<!-- Title: %3 Pages: 1 -->
<svg width="834pt" height="78pt"
 viewBox="0.00 0.00 834.00 78.00" xmlns="http://www.w3.org/2000/svg" xmlns:xlink="http://www.w3.org/1999/xlink">
<g id="graph0" class="graph" transform="scale(1 1) rotate(0) translate(4 74)">
<title>%3</title>
<polygon fill="white" stroke="none" points="-4,4 -4,-74 830,-74 830,4 -4,4"/>
<!-- Module Name -->
<g id="node1" class="node"><title>Module Name</title>
<polygon fill="none" stroke="black" points="96,-36 0,-36 0,-0 96,-0 96,-36"/>
<text text-anchor="middle" x="48" y="-14.3" font-family="Times,serif" font-size="14.00">Module Name</text>
</g>
<!-- Raw Source (Bytes) -->
<g id="node2" class="node"><title>Raw Source (Bytes)</title>
<polygon fill="none" stroke="black" points="260,-67 134,-67 134,-31 260,-31 260,-67"/>
<text text-anchor="middle" x="197" y="-45.3" font-family="Times,serif" font-size="14.00">Raw Source (Bytes)</text>
</g>
<!-- Module Name&#45;&gt;Raw Source (Bytes) -->
<g id="edge1" class="edge"><title>Module Name&#45;&gt;Raw Source (Bytes)</title>
<path fill="none" stroke="black" d="M96.3209,-27.9792C105.073,-29.825 114.395,-31.7909 123.692,-33.7514"/>
<polygon fill="black" stroke="black" points="123.235,-37.2319 133.742,-35.8708 124.679,-30.3825 123.235,-37.2319"/>
</g>
<!-- Bytecode -->
<g id="node3" class="node"><title>Bytecode</title>
<polygon fill="none" stroke="black" points="716,-37 648,-37 648,-1 716,-1 716,-37"/>
<text text-anchor="middle" x="682" y="-15.3" font-family="Times,serif" font-size="14.00">Bytecode</text>
</g>
<!-- Module Name&#45;&gt;Bytecode -->
<g id="edge2" class="edge"><title>Module Name&#45;&gt;Bytecode</title>
<path fill="none" stroke="red" d="M96.1746,-9.74899C124.929,-5.41764 162.473,-1 196,-1 196,-1 196,-1 545,-1 576.224,-1 611.133,-5.72044 637.766,-10.3266"/>
<polygon fill="red" stroke="red" points="637.446,-13.8249 647.906,-12.1436 638.68,-6.93466 637.446,-13.8249"/>
<text text-anchor="middle" x="369" y="-4.8" font-family="Times,serif" font-size="14.00">Import Hook</text>
</g>
<!-- Source Text (Unicode) -->
<g id="node4" class="node"><title>Source Text (Unicode)</title>
<polygon fill="none" stroke="black" points="439.5,-70 298.5,-70 298.5,-34 439.5,-34 439.5,-70"/>
<text text-anchor="middle" x="369" y="-48.3" font-family="Times,serif" font-size="14.00">Source Text (Unicode)</text>
</g>
<!-- Raw Source (Bytes)&#45;&gt;Source Text (Unicode) -->
<g id="edge3" class="edge"><title>Raw Source (Bytes)&#45;&gt;Source Text (Unicode)</title>
<path fill="none" stroke="black" d="M260.336,-50.1001C269.453,-50.2609 278.944,-50.4284 288.348,-50.5944"/>
<polygon fill="black" stroke="black" points="288.436,-54.0964 298.496,-50.7735 288.56,-47.0975 288.436,-54.0964"/>
</g>
<!-- Execution -->
<g id="node6" class="node"><title>Execution</title>
<polygon fill="none" stroke="black" points="825.5,-37 754.5,-37 754.5,-1 825.5,-1 825.5,-37"/>
<text text-anchor="middle" x="790" y="-15.3" font-family="Times,serif" font-size="14.00">Execution</text>
</g>
<!-- Bytecode&#45;&gt;Execution -->
<g id="edge6" class="edge"><title>Bytecode&#45;&gt;Execution</title>
<path fill="none" stroke="black" d="M716.248,-19C725.166,-19 734.954,-19 744.379,-19"/>
<polygon fill="black" stroke="black" points="744.406,-22.5001 754.406,-19 744.406,-15.5001 744.406,-22.5001"/>
</g>
<!-- Abstract Syntax Tree -->
<g id="node5" class="node"><title>Abstract Syntax Tree</title>
<polygon fill="none" stroke="black" points="610,-66 478,-66 478,-30 610,-30 610,-66"/>
<text text-anchor="middle" x="544" y="-44.3" font-family="Times,serif" font-size="14.00">Abstract Syntax Tree</text>
</g>
<!-- Source Text (Unicode)&#45;&gt;Abstract Syntax Tree -->
<g id="edge4" class="edge"><title>Source Text (Unicode)&#45;&gt;Abstract Syntax Tree</title>
<path fill="none" stroke="black" d="M439.867,-50.3846C449.095,-50.1712 458.586,-49.9518 467.897,-49.7365"/>
<polygon fill="black" stroke="black" points="467.994,-53.2353 477.91,-49.505 467.832,-46.2372 467.994,-53.2353"/>
</g>
<!-- Abstract Syntax Tree&#45;&gt;Bytecode -->
<g id="edge5" class="edge"><title>Abstract Syntax Tree&#45;&gt;Bytecode</title>
<path fill="none" stroke="black" d="M610.212,-34.0946C619.619,-32.0885 629.098,-30.0673 637.926,-28.1848"/>
<polygon fill="black" stroke="black" points="638.898,-31.5564 647.948,-26.0479 637.438,-24.7104 638.898,-31.5564"/>
</g>
</g>
</svg>
